<svg width="24" height="24" viewBox="0 0 24 24" fill="none" xmlns="http://www.w3.org/2000/svg">
  <!-- Prolog Lambda Symbol -->
  <path d="M3 20V4h3v13h6v3H3z" fill="currentColor"/>
  <!-- Logic Gates/Rules representation -->
  <path d="M14 8h6v2h-6V8z" fill="currentColor"/>
  <path d="M14 12h6v2h-6v-2z" fill="currentColor"/>
  <path d="M14 16h4v2h-4v-2z" fill="currentColor"/>
  <!-- Connection dots -->
  <circle cx="12" cy="9" r="1" fill="currentColor"/>
  <circle cx="12" cy="13" r="1" fill="currentColor"/>
  <circle cx="12" cy="17" r="1" fill="currentColor"/>
  <!-- Query symbol -->
  <path d="M18 4a2 2 0 0 1 2 2v1a2 2 0 0 1-2 2h-1V7h1V6h-1V4h1z" fill="currentColor"/>
</svg>